<?xml version="1.0" standalone="no"?>
<!DOCTYPE svg PUBLIC "-//W3C//DTD SVG 20010904//EN"
 "http://www.w3.org/TR/2001/REC-SVG-20010904/DTD/svg10.dtd">
<svg version="1.0" xmlns="http://www.w3.org/2000/svg"
 width="128.000000pt" height="128.000000pt" viewBox="0 0 128.000000 128.000000"
 preserveAspectRatio="xMidYMid meet">
<metadata>
Created by potrace 1.10, written by Peter Selinger 2001-2011
</metadata>
<g transform="translate(0.000000,128.000000) scale(0.100000,-0.100000)"
fill="#000000" stroke="none">
<path d="M493 1195 c-69 -19 -158 -64 -219 -112 l-49 -39 3 -130 3 -130 83 4
c69 4 89 1 124 -17 77 -39 122 -128 122 -240 0 -118 -47 -203 -135 -246 -48
-24 -68 -28 -141 -27 -46 0 -84 -4 -84 -9 0 -15 120 -106 177 -134 93 -45 151
-59 258 -59 110 -1 168 11 260 56 168 82 281 229 321 419 34 162 -21 374 -123
475 -21 20 -36 41 -35 48 2 6 1 8 -3 4 -4 -4 -30 10 -59 31 -66 50 -141 87
-213 106 -71 19 -221 18 -290 0z m590 -278 c80 -40 112 -94 112 -192 0 -144
-76 -210 -266 -229 l-99 -10 0 -108 0 -108 -75 0 -75 0 0 334 0 335 28 4 c15
3 92 4 172 3 137 -1 148 -2 203 -29z"/>
<path d="M830 725 l0 -95 63 0 c82 0 128 23 140 69 19 77 -32 121 -143 121
l-60 0 0 -95z"/>
<path d="M260 662 c-25 -8 -25 -9 -28 -140 l-3 -131 26 -7 c98 -24 170 66 150
187 -13 74 -73 112 -145 91z"/>
</g>
</svg>
